# xmcd
#
# Track frame offsets: 
#        150
#        16982
#        34979
#        50059
#        97547
#        153920
#        174635
#        200750
#        220371
#        251215
#        287392
#        324928
#
# Disc length: 4671 seconds
#
# Revision: 1
# Processed by: cddbd v1.5.2PL0 Copyright (c) Steve Scherf et al.
# Submitted via: ExactAudioCopy v0.99pb5
#
DISCID=a4123d0c
DTITLE=Savoy Brown - Hellbound Train Live 1969-1972 cd 2
DYEAR=2000
DGENRE=Blues
TTITLE0=I Wantyou to love me
TTITLE1=Money can´t save your soul
TTITLE2=Looking from the outside
TTITLE3=Hellbound train
TTITLE4=All I can do
TTITLE5=So tired
TTITLE6=Let It rock
TTITLE7=The saddest feeling
TTITLE8=Jack the toad
TTITLE9=I hate to see you go
TTITLE10=Love me please
TTITLE11=Tell mama
EXTD=
EXTT0=
EXTT1=
EXTT2=
EXTT3=
EXTT4=
EXTT5=
EXTT6=
EXTT7=
EXTT8=
EXTT9=
EXTT10=
EXTT11=
PLAYORDER=
